# xmcd
#
# Track frame offsets:
#	150
#	15674
#	28466
#	41748
#	57169
#	69525
#	80958
#	94502
#	110714
#	125110
#	139866
#	155393
#
# Disc length: 2245 seconds
# Revision: 0
# Processed by: cddbd v1.5.2PL0 Copyright (c) Steve Scherf et al.
# Submitted via: dBpowerAMP V12.0
#
DISCID=ae08c30c
DTITLE=Jill (Jill Fortin) - Coeur Cobaye
DYEAR=2013
DGENRE=Pop
TTITLE0=Cœur Cobaye
TTITLE1=Bonheur Facile
TTITLE2=C'est Quoi Ton Truc
TTITLE3=Depuis Quand...
TTITLE4=L'île Aux Fesses
TTITLE5=Petite Sœur
TTITLE6=Bye Bye Boss
TTITLE7=Je T'aime De Même
TTITLE8=Si Tu M'aimais Encore
TTITLE9=La Gadoue
TTITLE10=Par-Dessus Bord
TTITLE11=Reste Donc
EXTD=
EXTT0=
EXTT1=
EXTT2=
EXTT3=
EXTT4=
EXTT5=
EXTT6=
EXTT7=
EXTT8=
EXTT9=
EXTT10=
EXTT11=
PLAYORDER=
